<svg id="svg" version="1.1" xmlns="http://www.w3.org/2000/svg" xmlns:xlink="http://www.w3.org/1999/xlink" width="400" height="400" viewBox="0, 0, 400,400"><g id="svgg"><path id="path0" d="M194.400 114.390 C 168.342 116.641,150.522 144.253,158.899 169.400 C 165.602 189.520,186.180 201.634,206.800 197.597 C 208.010 197.360,209.587 197.064,210.304 196.939 C 211.021 196.814,211.706 196.551,211.827 196.356 C 211.948 196.160,212.324 196.000,212.663 196.000 C 215.429 196.000,224.959 189.922,224.728 188.305 C 224.521 186.853,223.304 187.015,220.466 188.874 C 219.000 189.834,216.900 191.039,215.800 191.553 C 214.700 192.067,213.487 192.648,213.105 192.844 C 212.723 193.040,212.059 193.200,211.629 193.200 C 211.199 193.200,210.748 193.360,210.627 193.556 C 210.506 193.751,209.821 194.010,209.104 194.131 C 198.933 195.845,196.266 195.853,189.800 194.189 C 185.392 193.055,177.318 189.337,176.400 188.019 C 176.290 187.861,175.879 187.557,175.487 187.342 C 171.534 185.186,162.400 172.687,162.400 169.435 C 162.400 169.112,162.241 168.749,162.046 168.629 C 161.851 168.508,161.594 167.913,161.474 167.305 C 160.252 161.111,160.016 159.314,160.016 156.200 C 160.016 153.086,160.252 151.289,161.474 145.095 C 161.594 144.487,161.851 143.892,162.046 143.771 C 162.241 143.651,162.400 143.282,162.400 142.951 C 162.400 142.620,162.973 141.146,163.674 139.675 C 174.578 116.784,203.172 110.020,223.360 125.557 C 239.263 137.797,242.926 161.300,231.545 178.078 C 229.953 180.426,229.670 181.510,230.449 182.289 C 231.509 183.349,233.886 180.416,236.475 174.851 C 237.358 172.953,238.242 171.087,238.440 170.705 C 238.638 170.323,238.800 169.659,238.800 169.229 C 238.800 168.799,238.960 168.348,239.156 168.227 C 239.513 168.007,239.646 167.396,240.469 162.200 C 241.021 158.720,241.015 153.425,240.456 150.000 C 239.627 144.926,239.508 144.390,239.156 144.173 C 238.960 144.052,238.800 143.601,238.800 143.171 C 238.800 142.303,238.879 142.490,236.260 137.200 C 228.473 121.469,212.596 112.818,194.400 114.390 M194.400 124.225 C 187.208 125.456,183.063 127.295,183.279 129.160 C 183.440 130.547,184.592 130.676,187.057 129.582 C 191.615 127.560,191.864 127.511,198.600 127.312 C 204.754 127.131,206.814 127.530,212.000 129.908 C 215.449 131.489,219.717 135.118,223.144 139.383 C 224.092 140.563,226.800 146.080,226.800 146.832 C 226.800 147.228,226.961 147.652,227.158 147.774 C 228.436 148.564,228.436 163.836,227.158 164.626 C 226.961 164.748,226.800 165.276,226.800 165.800 C 226.800 166.324,226.620 166.864,226.400 167.000 C 226.180 167.136,226.000 167.582,226.000 167.990 C 226.000 168.399,225.865 168.793,225.700 168.867 C 225.535 168.940,224.967 169.855,224.437 170.900 C 223.908 171.945,223.335 172.800,223.164 172.800 C 222.993 172.800,222.748 173.132,222.620 173.539 C 222.428 174.142,220.107 176.601,217.004 179.490 C 208.769 187.154,191.653 187.283,181.765 179.757 C 167.732 169.075,165.907 152.091,177.145 136.755 C 178.038 135.537,177.410 133.922,176.103 134.075 C 172.981 134.440,167.783 144.802,166.774 152.668 C 165.875 159.677,168.822 171.264,172.403 174.800 C 172.514 174.910,173.221 175.818,173.975 176.818 C 185.824 192.547,213.441 191.885,224.786 175.600 C 225.323 174.830,225.864 174.110,225.989 174.000 C 226.659 173.410,229.324 167.313,229.923 165.000 C 230.150 164.120,230.531 162.659,230.768 161.754 C 231.325 159.629,231.325 152.771,230.768 150.646 C 230.531 149.741,230.150 148.280,229.923 147.400 C 229.167 144.477,226.773 139.351,225.553 138.041 C 225.139 137.597,224.800 137.079,224.800 136.890 C 224.800 136.474,219.958 131.673,217.970 130.118 C 215.450 128.148,209.717 125.487,206.600 124.841 C 199.964 123.466,199.090 123.422,194.400 124.225 M195.200 137.466 C 193.499 137.817,191.710 139.496,190.584 141.797 C 189.647 143.712,189.355 144.000,188.349 144.000 C 182.257 144.000,180.285 148.110,180.471 160.419 C 180.619 170.247,180.982 171.461,184.477 173.831 L 186.200 175.000 198.800 174.996 L 211.400 174.993 213.068 173.865 C 213.985 173.244,215.245 172.002,215.868 171.103 L 217.000 169.470 217.133 160.599 C 217.324 147.785,215.999 144.943,209.404 144.023 C 208.105 143.842,207.769 143.614,207.604 142.800 C 206.747 138.596,201.225 136.221,195.200 137.466 M204.466 140.811 C 206.893 143.718,206.448 144.000,199.433 144.000 C 191.761 144.000,191.729 143.990,192.861 141.976 C 194.696 138.712,202.093 137.970,204.466 140.811 M211.999 146.600 C 217.015 149.193,216.849 156.225,211.705 159.100 C 210.341 159.863,188.589 159.806,186.749 159.035 C 181.565 156.863,181.263 149.661,186.232 146.744 C 187.884 145.774,210.162 145.649,211.999 146.600 M215.921 162.800 C 216.264 172.474,214.103 173.706,197.559 173.267 L 186.918 172.985 185.459 171.872 C 183.236 170.177,182.693 168.767,182.483 164.155 C 182.267 159.387,182.416 159.189,185.172 160.586 L 187.173 161.600 198.963 161.600 C 206.391 161.600,210.844 161.452,211.000 161.200 C 211.136 160.980,211.565 160.800,211.954 160.800 C 212.342 160.800,213.007 160.447,213.430 160.014 C 215.109 158.302,215.788 159.061,215.921 162.800 M197.400 216.775 C 186.012 219.560,184.197 237.620,194.906 241.587 C 195.618 241.851,196.539 242.248,196.953 242.470 C 197.975 243.017,205.170 242.990,205.724 242.436 C 205.964 242.196,206.488 242.000,206.888 242.000 C 207.672 242.000,212.000 238.039,212.000 237.321 C 212.000 236.965,208.857 235.200,208.223 235.200 C 208.120 235.200,207.623 235.605,207.118 236.101 C 203.012 240.129,196.383 239.130,194.036 234.128 C 193.745 233.508,193.348 232.687,193.153 232.305 C 192.670 231.356,192.706 227.305,193.200 227.000 C 193.420 226.864,193.600 226.436,193.600 226.048 C 193.600 224.149,197.516 220.940,200.005 220.798 C 203.590 220.594,204.251 220.768,206.105 222.400 C 208.243 224.282,208.107 224.262,210.607 223.056 L 212.564 222.112 210.341 219.889 C 207.220 216.768,202.286 215.581,197.400 216.775 M107.200 229.800 L 107.200 242.800 114.700 242.794 C 123.778 242.787,128.000 241.496,128.000 238.727 C 128.000 238.353,128.180 237.936,128.400 237.800 C 129.845 236.907,127.987 231.752,125.715 230.348 C 124.167 229.391,124.084 228.997,125.292 228.351 C 129.140 226.291,128.990 220.117,125.035 217.800 C 123.369 216.823,123.145 216.800,115.265 216.800 L 107.200 216.800 107.200 229.800 M133.600 229.800 L 133.600 242.800 135.800 242.800 L 138.000 242.800 138.000 229.800 L 138.000 216.800 135.800 216.800 L 133.600 216.800 133.600 229.800 M238.000 229.800 L 238.000 242.800 239.957 242.800 C 242.534 242.800,242.400 243.547,242.400 229.167 L 242.400 216.800 240.200 216.800 L 238.000 216.800 238.000 229.800 M248.000 229.800 L 248.000 242.800 250.200 242.800 L 252.400 242.800 252.400 229.800 L 252.400 216.800 250.200 216.800 L 248.000 216.800 248.000 229.800 M121.746 221.629 C 122.571 222.278,122.800 222.806,122.800 224.058 C 122.800 226.781,121.002 227.692,115.975 227.517 L 112.600 227.400 112.484 224.100 L 112.368 220.800 116.530 220.800 C 120.135 220.800,120.833 220.911,121.746 221.629 M171.023 224.419 C 163.996 227.924,163.727 238.216,170.563 241.993 C 172.266 242.934,178.357 243.250,179.860 242.475 C 180.267 242.265,181.095 241.862,181.700 241.579 C 182.977 240.982,183.030 240.724,182.154 239.386 C 181.501 238.389,180.477 238.113,179.780 238.745 C 177.380 240.922,171.335 239.273,170.573 236.234 C 170.151 234.555,170.724 234.413,177.956 234.406 L 184.512 234.400 184.290 232.251 C 183.587 225.435,176.899 221.487,171.023 224.419 M220.400 223.990 C 220.070 224.179,219.133 224.623,218.317 224.977 C 216.398 225.811,216.238 226.127,216.994 227.588 C 217.737 229.025,217.612 229.004,219.400 228.000 C 223.132 225.904,227.600 227.408,227.600 230.761 C 227.600 233.164,227.434 233.311,225.810 232.353 C 219.618 228.699,212.462 234.475,216.030 240.248 C 217.734 243.005,226.400 244.053,226.400 241.502 C 226.400 240.838,227.562 241.252,227.800 242.000 C 228.225 243.340,231.894 243.162,232.240 241.784 C 232.847 239.364,232.209 228.232,231.382 226.815 C 229.864 224.216,223.063 222.467,220.400 223.990 M262.201 224.535 C 255.310 228.260,255.290 238.446,262.166 241.983 C 264.049 242.951,269.985 243.252,271.465 242.455 C 271.869 242.237,272.519 241.959,272.909 241.838 C 273.914 241.526,274.193 240.509,273.586 239.373 C 273.059 238.390,272.078 238.111,271.380 238.746 C 269.125 240.797,263.644 239.574,262.210 236.700 C 261.165 234.606,261.668 234.432,269.141 234.309 L 275.800 234.200 275.681 232.200 C 275.284 225.510,268.028 221.385,262.201 224.535 M287.926 224.414 C 287.115 224.842,286.340 225.374,286.202 225.596 C 285.772 226.292,285.195 226.039,284.792 224.978 C 284.440 224.052,284.224 223.968,282.502 224.078 L 280.600 224.200 280.493 233.500 L 280.385 242.800 282.593 242.800 L 284.800 242.800 284.806 236.500 C 284.809 233.035,284.962 229.963,285.146 229.674 C 285.597 228.963,287.510 228.000,288.472 228.000 C 290.144 228.000,290.800 227.263,290.800 225.386 C 290.800 223.312,290.320 223.150,287.926 224.414 M143.758 224.566 C 143.187 226.053,143.786 239.780,144.463 240.737 C 146.232 243.234,150.685 243.742,154.100 241.835 C 156.374 240.565,156.400 240.565,156.400 241.800 C 156.400 242.745,156.520 242.800,158.600 242.800 L 160.800 242.800 160.800 233.379 L 160.800 223.958 158.700 224.079 L 156.600 224.200 156.488 230.800 L 156.376 237.400 154.994 238.300 C 152.328 240.035,148.788 239.195,148.202 236.689 C 148.088 236.200,147.951 233.190,147.897 230.000 L 147.800 224.200 145.896 224.078 C 144.477 223.987,143.932 224.111,143.758 224.566 M178.791 228.452 C 179.678 229.340,180.008 230.010,179.922 230.752 L 179.800 231.800 175.458 231.914 C 170.569 232.042,169.804 231.766,170.437 230.102 C 171.627 226.972,176.373 226.035,178.791 228.452 M269.949 228.038 C 271.200 229.203,271.741 230.748,271.149 231.461 C 270.311 232.471,261.835 232.042,261.683 230.982 C 261.261 228.030,267.540 225.794,269.949 228.038 M122.369 232.636 C 125.924 235.627,123.139 238.400,116.581 238.400 L 112.400 238.400 112.400 235.000 L 112.400 231.600 116.769 231.600 C 120.886 231.600,121.210 231.660,122.369 232.636 M226.389 234.595 C 227.632 235.237,227.894 235.905,227.668 237.853 C 227.322 240.845,220.475 241.033,219.732 238.070 C 218.938 234.909,222.949 232.815,226.389 234.595 " stroke="none" fill="#604ea5" fill-rule="evenodd"></path><path id="path1" d="M0.000 200.000 L 0.000 400.000 200.000 400.000 L 400.000 400.000 400.000 200.000 L 400.000 0.000 200.000 0.000 L 0.000 0.000 0.000 200.000 M202.923 113.618 C 209.350 114.550,212.672 115.440,216.800 117.333 C 223.623 120.461,230.139 126.047,234.378 132.400 C 238.011 137.845,239.363 141.135,241.159 148.906 C 241.729 151.370,241.729 161.030,241.159 163.494 C 240.089 168.126,239.540 169.981,238.553 172.300 C 234.713 181.325,230.932 185.237,229.192 181.985 C 228.754 181.167,230.091 178.000,230.874 178.000 C 231.053 178.000,231.200 177.842,231.200 177.648 C 231.200 177.455,231.819 176.270,232.575 175.014 C 250.240 145.678,219.715 108.620,187.000 119.687 C 184.133 120.657,179.454 122.831,179.267 123.280 C 179.193 123.456,178.912 123.600,178.642 123.600 C 178.372 123.600,177.802 123.920,177.375 124.311 C 176.949 124.702,175.970 125.459,175.200 125.994 C 169.505 129.948,163.811 138.794,161.677 147.000 C 157.197 164.228,166.019 183.034,182.200 190.749 C 183.740 191.483,185.313 192.245,185.695 192.442 C 186.077 192.639,186.741 192.800,187.171 192.800 C 187.601 192.800,188.052 192.961,188.174 193.158 C 189.177 194.780,208.823 194.780,209.826 193.158 C 209.948 192.961,210.399 192.800,210.829 192.800 C 211.259 192.800,211.923 192.639,212.305 192.442 C 212.687 192.245,214.350 191.447,216.000 190.667 C 217.650 189.887,219.899 188.608,220.999 187.825 C 223.383 186.125,224.076 186.062,225.162 187.443 C 226.280 188.864,225.840 189.549,222.288 191.919 C 209.778 200.265,192.607 201.257,179.800 194.373 C 178.480 193.663,176.996 192.884,176.503 192.641 C 176.010 192.399,175.605 192.065,175.603 191.900 C 175.601 191.735,175.400 191.600,175.156 191.600 C 173.294 191.600,162.400 180.032,162.400 178.055 C 162.400 177.842,162.264 177.607,162.098 177.533 C 161.468 177.255,158.786 171.278,157.999 168.400 C 157.729 167.410,157.365 166.150,157.192 165.600 C 155.899 161.501,155.897 150.853,157.189 146.800 C 157.364 146.250,157.729 144.990,157.999 144.000 C 160.929 133.283,170.136 122.534,180.600 117.618 C 187.889 114.193,196.391 112.670,202.923 113.618 M204.323 123.622 C 212.138 125.379,217.230 128.015,221.988 132.767 C 239.300 150.058,233.217 178.144,210.200 187.194 C 209.760 187.367,208.680 187.695,207.800 187.923 C 206.920 188.150,205.459 188.531,204.554 188.768 C 202.444 189.321,196.109 189.326,193.677 188.775 C 189.297 187.784,188.069 187.409,185.681 186.330 C 166.848 177.821,160.273 154.822,171.773 137.682 C 172.810 136.136,174.000 134.562,174.416 134.185 C 176.595 132.214,179.661 134.874,177.689 137.025 C 177.298 137.451,176.542 138.430,176.008 139.200 C 175.475 139.970,174.931 140.690,174.800 140.800 C 174.669 140.910,174.087 141.990,173.505 143.200 C 164.007 162.967,177.329 184.600,199.000 184.600 C 233.418 184.600,238.303 136.095,204.694 128.056 C 202.437 127.516,195.411 127.450,193.760 127.953 C 193.122 128.148,191.790 128.541,190.800 128.828 C 189.810 129.115,188.046 129.776,186.880 130.296 C 184.573 131.325,183.455 131.224,182.758 129.922 C 181.558 127.680,185.060 125.619,193.400 123.659 C 195.624 123.136,202.064 123.114,204.323 123.622 M204.053 137.403 C 205.777 138.262,208.000 140.748,208.000 141.816 C 208.000 142.990,208.763 143.600,210.234 143.600 C 212.603 143.600,215.750 145.958,217.216 148.832 C 218.371 151.095,218.389 167.723,217.240 170.200 C 214.920 175.200,212.369 176.002,198.806 175.994 C 185.742 175.987,184.195 175.579,181.359 171.400 C 179.605 168.814,178.763 155.177,180.078 150.646 C 181.261 146.572,184.329 143.807,187.997 143.512 C 189.025 143.430,189.433 143.189,189.545 142.602 C 190.473 137.713,198.737 134.751,204.053 137.403 M194.300 140.947 C 191.722 143.164,192.527 143.600,199.200 143.600 C 205.876 143.600,206.112 143.485,203.953 141.276 C 202.247 139.532,196.186 139.325,194.300 140.947 M187.136 146.938 C 182.801 148.864,181.845 153.785,185.124 157.300 C 185.688 157.905,186.465 158.400,186.851 158.400 C 187.237 158.400,187.664 158.580,187.800 158.800 C 188.334 159.664,209.393 159.302,211.304 158.396 C 216.038 156.153,216.038 149.447,211.304 147.204 C 209.270 146.239,189.204 146.019,187.136 146.938 M183.200 164.341 C 183.200 171.752,183.995 172.218,197.248 172.576 C 209.879 172.917,210.826 172.795,213.072 170.550 L 214.800 168.821 214.800 164.611 C 214.800 160.067,214.736 159.963,212.710 161.199 C 210.690 162.430,187.193 162.431,185.000 161.200 C 184.217 160.760,183.491 160.400,183.388 160.400 C 183.285 160.400,183.200 162.173,183.200 164.341 M206.000 216.237 C 208.903 217.246,212.800 220.697,212.800 222.258 C 212.800 222.483,211.705 223.231,210.367 223.921 L 207.933 225.176 206.867 224.030 C 201.603 218.372,193.771 221.811,193.816 229.761 C 193.858 236.997,201.151 240.611,206.243 235.918 L 208.014 234.285 209.707 235.013 C 213.104 236.473,213.374 237.462,211.019 239.817 C 200.335 250.501,182.658 238.570,188.003 224.283 C 190.480 217.663,199.063 213.826,206.000 216.237 M123.800 216.446 C 128.583 217.768,130.362 224.101,126.986 227.788 L 125.625 229.273 126.793 230.255 C 130.634 233.488,129.921 240.078,125.483 242.356 C 123.890 243.173,123.341 243.213,115.200 243.110 L 106.600 243.000 106.494 230.003 C 106.436 222.855,106.476 216.780,106.582 216.503 C 106.834 215.847,121.456 215.799,123.800 216.446 M138.305 229.700 L 138.411 243.200 135.605 243.200 L 132.800 243.200 132.800 229.867 C 132.800 214.846,132.566 215.927,135.784 216.083 L 138.200 216.200 138.305 229.700 M243.000 229.600 L 243.000 243.000 240.200 243.000 L 237.400 243.000 237.288 230.400 C 237.150 214.795,236.909 215.933,240.312 216.082 L 243.000 216.200 243.000 229.600 M253.105 229.700 L 253.211 243.200 250.405 243.200 L 247.600 243.200 247.600 229.867 C 247.600 214.846,247.366 215.927,250.584 216.083 L 253.000 216.200 253.105 229.700 M112.800 224.000 L 112.800 226.400 116.977 226.400 C 120.841 226.400,121.201 226.333,121.777 225.511 C 123.588 222.926,121.896 221.600,116.784 221.600 L 112.800 221.600 112.800 224.000 M179.318 223.646 C 182.769 225.424,184.777 228.562,185.108 232.692 L 185.310 235.200 178.442 235.200 C 170.601 235.200,169.834 235.514,172.415 237.669 C 174.116 239.089,177.551 239.263,179.729 238.040 C 181.241 237.190,181.467 237.268,182.719 239.062 C 183.918 240.780,183.855 241.020,181.900 242.145 C 172.321 247.663,161.406 238.860,165.738 229.111 C 168.057 223.895,174.652 221.241,179.318 223.646 M229.613 224.056 C 232.576 225.721,233.000 227.165,233.000 235.600 L 233.000 243.000 230.100 243.118 C 227.618 243.218,227.200 243.139,227.200 242.572 C 227.200 241.979,227.103 241.970,226.300 242.484 C 219.613 246.765,210.983 239.424,215.468 233.270 C 217.530 230.442,224.043 229.510,226.259 231.726 C 226.844 232.310,227.200 231.949,227.200 230.771 C 227.200 227.793,223.645 226.732,219.925 228.600 C 217.402 229.867,217.439 229.872,216.440 228.177 C 215.140 225.974,215.306 225.630,218.400 224.113 C 221.559 222.564,226.911 222.537,229.613 224.056 M271.453 224.006 C 274.528 225.685,277.113 230.484,276.735 233.812 L 276.600 235.000 269.700 235.109 C 263.242 235.212,262.800 235.267,262.800 235.974 C 262.800 238.424,267.769 239.573,271.492 237.983 C 272.899 237.382,273.637 237.827,274.783 239.968 C 275.332 240.994,275.196 241.195,273.200 242.299 C 265.239 246.703,256.613 242.075,256.613 233.400 C 256.613 225.187,264.488 220.202,271.453 224.006 M291.400 225.605 L 291.400 228.200 290.000 228.319 C 285.840 228.672,285.625 229.077,285.500 236.800 L 285.400 243.000 282.493 243.118 L 279.586 243.235 279.693 233.318 L 279.800 223.400 282.500 223.282 C 284.676 223.186,285.200 223.279,285.200 223.758 C 285.200 224.766,285.954 224.887,287.108 224.066 C 288.203 223.286,289.651 222.851,290.800 222.956 C 291.266 222.999,291.400 223.590,291.400 225.605 M148.557 223.833 C 148.691 224.181,148.800 227.321,148.800 230.810 C 148.800 238.605,149.894 239.950,154.400 237.699 L 155.800 237.000 156.000 230.200 L 156.200 223.400 158.637 223.283 C 162.143 223.114,162.033 222.765,161.907 233.650 L 161.800 243.000 159.068 243.119 C 156.588 243.227,156.315 243.161,156.118 242.409 C 155.903 241.586,155.890 241.586,154.621 242.335 C 152.361 243.668,149.405 244.230,147.692 243.651 C 143.172 242.124,142.800 241.183,142.800 231.271 C 142.800 227.125,142.920 223.613,143.067 223.467 C 143.662 222.872,148.307 223.182,148.557 223.833 M173.000 228.083 C 169.637 230.012,170.552 231.200,175.400 231.200 C 180.075 231.200,180.096 231.185,178.371 229.091 C 177.045 227.482,174.786 227.059,173.000 228.083 M263.937 228.515 C 261.625 230.504,262.139 230.987,266.700 231.114 C 271.370 231.244,271.820 230.873,269.558 228.760 C 267.950 227.258,265.522 227.152,263.937 228.515 M112.800 235.000 L 112.800 237.600 117.000 237.600 C 121.912 237.600,123.098 236.989,122.639 234.696 C 122.207 232.537,121.880 232.400,117.151 232.400 L 112.800 232.400 112.800 235.000 M221.289 235.423 C 218.168 237.609,222.449 240.836,226.020 238.990 C 228.579 237.666,227.060 234.800,223.800 234.800 C 222.908 234.800,221.778 235.080,221.289 235.423 " stroke="none" fill="#fbfbfb" fill-rule="evenodd"></path><path id="path2" d="M194.400 113.667 C 186.728 114.716,181.161 116.774,175.128 120.791 C 167.225 126.055,160.363 135.353,157.999 144.000 C 157.729 144.990,157.364 146.250,157.189 146.800 C 155.897 150.853,155.899 161.501,157.192 165.600 C 157.365 166.150,157.729 167.410,157.999 168.400 C 158.786 171.278,161.468 177.255,162.098 177.533 C 162.264 177.607,162.400 177.842,162.400 178.055 C 162.400 180.032,173.294 191.600,175.156 191.600 C 175.400 191.600,175.601 191.735,175.603 191.900 C 175.605 192.065,176.010 192.399,176.503 192.641 C 176.996 192.884,178.480 193.663,179.800 194.373 C 192.607 201.257,209.778 200.265,222.288 191.919 C 225.840 189.549,226.280 188.864,225.162 187.443 C 224.076 186.062,223.383 186.125,220.999 187.825 C 219.899 188.608,217.650 189.887,216.000 190.667 C 214.350 191.447,212.687 192.245,212.305 192.442 C 211.923 192.639,211.259 192.800,210.829 192.800 C 210.399 192.800,209.948 192.961,209.826 193.158 C 208.823 194.780,189.177 194.780,188.174 193.158 C 188.052 192.961,187.601 192.800,187.171 192.800 C 186.741 192.800,186.077 192.639,185.695 192.442 C 185.313 192.245,183.740 191.483,182.200 190.749 C 166.019 183.034,157.197 164.228,161.677 147.000 C 163.811 138.794,169.505 129.948,175.200 125.994 C 175.970 125.459,176.949 124.702,177.375 124.311 C 177.802 123.920,178.372 123.600,178.642 123.600 C 178.912 123.600,179.193 123.456,179.267 123.280 C 179.340 123.104,180.570 122.406,182.000 121.730 C 207.333 109.738,235.733 126.468,237.473 154.408 C 237.886 161.047,235.865 169.551,232.575 175.014 C 231.819 176.270,231.200 177.455,231.200 177.648 C 231.200 177.842,231.053 178.000,230.874 178.000 C 230.091 178.000,228.754 181.167,229.192 181.985 C 230.415 184.271,232.211 183.408,234.935 179.227 C 238.012 174.504,239.461 170.843,241.159 163.494 C 241.729 161.030,241.729 151.370,241.159 148.906 C 239.846 143.226,239.436 141.984,237.323 137.300 C 230.441 122.040,211.090 111.385,194.400 113.667 M207.600 115.023 C 220.107 117.602,230.564 125.694,236.260 137.200 C 238.879 142.490,238.800 142.303,238.800 143.171 C 238.800 143.601,238.960 144.052,239.156 144.173 C 239.508 144.390,239.627 144.926,240.456 150.000 C 241.015 153.425,241.021 158.720,240.469 162.200 C 239.646 167.396,239.513 168.007,239.156 168.227 C 238.960 168.348,238.800 168.799,238.800 169.229 C 238.800 169.659,238.638 170.323,238.440 170.705 C 238.242 171.087,237.358 172.953,236.475 174.851 C 233.886 180.416,231.509 183.349,230.449 182.289 C 229.670 181.510,229.953 180.426,231.545 178.078 C 240.320 165.141,240.436 147.695,231.832 134.809 C 214.793 109.290,176.857 111.998,163.674 139.675 C 162.973 141.146,162.400 142.620,162.400 142.951 C 162.400 143.282,162.241 143.651,162.046 143.771 C 161.851 143.892,161.594 144.487,161.474 145.095 C 160.252 151.286,160.015 153.086,160.008 156.200 C 160.004 158.180,160.274 161.150,160.608 162.800 C 160.941 164.450,161.325 166.389,161.461 167.110 C 161.597 167.830,161.864 168.516,162.054 168.633 C 162.244 168.751,162.400 169.112,162.400 169.435 C 162.400 172.687,171.534 185.186,175.487 187.342 C 175.879 187.557,176.290 187.861,176.400 188.019 C 177.318 189.337,185.392 193.055,189.800 194.189 C 196.266 195.853,198.933 195.845,209.104 194.131 C 209.821 194.010,210.506 193.751,210.627 193.556 C 210.748 193.360,211.199 193.200,211.629 193.200 C 212.059 193.200,212.723 193.040,213.105 192.844 C 213.487 192.648,214.700 192.067,215.800 191.553 C 216.900 191.039,219.000 189.834,220.466 188.874 C 221.932 187.914,223.462 187.191,223.866 187.268 C 224.760 187.439,225.055 189.006,224.328 189.720 C 223.445 190.587,220.279 192.635,218.900 193.232 C 218.185 193.542,217.600 193.931,217.600 194.098 C 217.600 194.264,217.364 194.400,217.075 194.400 C 216.786 194.400,215.805 194.760,214.894 195.200 C 213.984 195.640,212.971 196.000,212.643 196.000 C 212.315 196.000,211.948 196.160,211.827 196.356 C 211.706 196.551,211.021 196.814,210.304 196.939 C 209.587 197.064,208.010 197.360,206.800 197.597 C 175.534 203.718,148.890 173.355,158.891 143.000 C 161.468 135.178,167.734 126.549,173.883 122.354 C 174.937 121.635,175.860 120.901,175.933 120.723 C 176.007 120.545,176.249 120.400,176.472 120.400 C 176.694 120.400,177.354 120.073,177.938 119.674 C 184.674 115.069,197.826 113.007,207.600 115.023 M193.400 123.659 C 185.060 125.619,181.558 127.680,182.758 129.922 C 183.455 131.224,184.573 131.325,186.880 130.296 C 188.046 129.776,189.810 129.115,190.800 128.828 C 191.790 128.541,193.122 128.148,193.760 127.953 C 195.411 127.450,202.437 127.516,204.694 128.056 C 238.303 136.095,233.418 184.600,199.000 184.600 C 177.329 184.600,164.007 162.967,173.505 143.200 C 174.087 141.990,174.669 140.910,174.800 140.800 C 174.931 140.690,175.475 139.970,176.008 139.200 C 176.542 138.430,177.298 137.451,177.689 137.025 C 179.661 134.874,176.595 132.214,174.416 134.185 C 166.601 141.258,163.872 157.597,168.620 168.893 C 173.800 181.217,185.834 189.200,199.231 189.200 C 201.253 189.200,203.648 189.006,204.554 188.768 C 205.459 188.531,206.920 188.150,207.800 187.923 C 208.680 187.695,209.760 187.367,210.200 187.194 C 233.217 178.144,239.300 150.058,221.988 132.767 C 217.230 128.015,212.138 125.379,204.323 123.622 C 202.064 123.114,195.624 123.136,193.400 123.659 M202.233 124.013 C 205.869 124.648,208.519 125.224,209.400 125.569 C 211.673 126.461,216.715 129.137,217.970 130.118 C 219.958 131.673,224.800 136.474,224.800 136.890 C 224.800 137.079,225.139 137.597,225.553 138.041 C 226.773 139.351,229.167 144.477,229.923 147.400 C 230.150 148.280,230.531 149.741,230.768 150.646 C 231.325 152.771,231.325 159.629,230.768 161.754 C 230.531 162.659,230.150 164.120,229.923 165.000 C 229.324 167.313,226.659 173.410,225.989 174.000 C 225.864 174.110,225.323 174.830,224.786 175.600 C 213.435 191.894,185.222 192.515,173.943 176.719 C 173.204 175.684,172.465 174.829,172.300 174.819 C 172.135 174.808,172.000 174.607,172.000 174.372 C 172.000 174.137,171.460 173.159,170.800 172.200 C 170.140 171.241,169.600 170.261,169.600 170.023 C 169.600 169.784,169.429 169.277,169.219 168.895 C 166.285 163.548,165.779 153.565,168.080 146.443 C 170.043 140.368,175.157 132.875,176.622 133.928 C 178.074 134.972,178.135 135.598,176.934 137.111 C 163.356 154.207,170.207 177.715,190.658 184.206 C 199.119 186.891,211.417 184.690,217.004 179.490 C 220.107 176.601,222.428 174.142,222.620 173.539 C 222.748 173.132,222.993 172.800,223.164 172.800 C 223.335 172.800,223.908 171.945,224.437 170.900 C 224.967 169.855,225.535 168.940,225.700 168.867 C 225.865 168.793,226.000 168.399,226.000 167.990 C 226.000 167.582,226.180 167.136,226.400 167.000 C 226.620 166.864,226.800 166.324,226.800 165.800 C 226.800 165.276,226.961 164.748,227.158 164.626 C 228.436 163.836,228.436 148.564,227.158 147.774 C 226.961 147.652,226.800 147.228,226.800 146.832 C 226.800 146.080,224.092 140.563,223.144 139.383 C 219.717 135.118,215.449 131.489,212.000 129.908 C 206.814 127.530,204.754 127.131,198.600 127.312 C 191.864 127.511,191.615 127.560,187.057 129.582 C 184.596 130.674,183.440 130.547,183.280 129.166 C 182.939 126.234,195.459 122.830,202.233 124.013 M195.800 136.749 C 192.870 137.524,189.999 140.211,189.545 142.602 C 189.433 143.189,189.025 143.430,187.997 143.512 C 184.329 143.807,181.261 146.572,180.078 150.646 C 178.763 155.177,179.605 168.814,181.359 171.400 C 184.195 175.579,185.742 175.987,198.806 175.994 C 212.369 176.002,214.920 175.200,217.240 170.200 C 218.389 167.723,218.371 151.095,217.216 148.832 C 215.750 145.958,212.603 143.600,210.234 143.600 C 208.763 143.600,208.000 142.990,208.000 141.816 C 208.000 138.476,200.712 135.449,195.800 136.749 M204.491 138.439 C 206.042 139.456,207.274 141.182,207.604 142.800 C 207.769 143.614,208.105 143.842,209.404 144.023 C 215.999 144.943,217.324 147.785,217.133 160.599 L 217.000 169.470 215.868 171.103 C 215.245 172.002,213.985 173.244,213.068 173.865 L 211.400 174.993 198.800 174.996 L 186.200 175.000 184.477 173.831 C 180.982 171.461,180.619 170.247,180.471 160.419 C 180.285 148.110,182.257 144.000,188.349 144.000 C 189.355 144.000,189.647 143.712,190.584 141.797 C 192.453 137.977,194.068 137.187,199.622 137.375 C 202.426 137.470,203.306 137.662,204.491 138.439 M194.963 139.804 C 193.331 140.641,191.704 143.401,192.631 143.757 C 192.980 143.891,196.041 144.000,199.433 144.000 L 205.600 144.000 205.600 143.072 C 205.600 139.972,198.742 137.865,194.963 139.804 M203.953 141.276 C 206.112 143.485,205.876 143.600,199.200 143.600 C 193.341 143.600,193.200 143.580,193.200 142.747 C 193.200 139.782,201.396 138.661,203.953 141.276 M186.232 146.744 C 181.263 149.661,181.565 156.863,186.749 159.035 C 188.589 159.806,210.341 159.863,211.705 159.100 C 216.849 156.225,217.015 149.193,211.999 146.600 C 210.162 145.649,187.884 145.774,186.232 146.744 M211.304 147.204 C 216.038 149.447,216.038 156.153,211.304 158.396 C 209.393 159.302,188.334 159.664,187.800 158.800 C 187.664 158.580,187.237 158.400,186.851 158.400 C 186.465 158.400,185.688 157.905,185.124 157.300 C 181.845 153.785,182.801 148.864,187.136 146.938 C 189.204 146.019,209.270 146.239,211.304 147.204 M213.430 160.014 C 213.007 160.447,212.342 160.800,211.954 160.800 C 211.565 160.800,211.136 160.980,211.000 161.200 C 210.844 161.452,206.391 161.600,198.963 161.600 L 187.173 161.600 185.172 160.586 C 182.416 159.189,182.267 159.387,182.483 164.155 C 182.693 168.767,183.236 170.177,185.459 171.872 L 186.918 172.985 197.559 173.267 C 214.103 173.706,216.264 172.474,215.921 162.800 C 215.788 159.061,215.109 158.302,213.430 160.014 M185.000 161.200 C 187.193 162.431,210.690 162.430,212.710 161.199 C 214.736 159.963,214.800 160.067,214.800 164.611 L 214.800 168.821 213.072 170.550 C 210.826 172.795,209.879 172.917,197.248 172.576 C 183.995 172.218,183.200 171.752,183.200 164.341 C 183.200 162.173,183.285 160.400,183.388 160.400 C 183.491 160.400,184.217 160.760,185.000 161.200 M197.800 216.000 C 197.296 216.217,197.222 216.344,197.600 216.344 C 197.930 216.344,198.560 216.189,199.000 216.000 C 199.504 215.783,199.578 215.656,199.200 215.656 C 198.870 215.656,198.240 215.811,197.800 216.000 M203.233 215.744 C 203.325 215.823,203.940 216.008,204.600 216.156 C 205.476 216.352,205.638 216.315,205.200 216.018 C 204.660 215.653,202.832 215.398,203.233 215.744 M106.667 216.267 C 106.297 216.637,106.329 242.709,106.700 242.938 C 106.865 243.041,106.950 237.115,106.890 229.770 L 106.779 216.417 114.890 216.300 L 123.000 216.182 114.967 216.091 C 110.548 216.041,106.813 216.120,106.667 216.267 M133.062 216.300 C 132.960 216.465,133.714 216.547,134.738 216.483 C 137.912 216.284,138.309 216.111,135.724 216.054 C 134.362 216.025,133.164 216.135,133.062 216.300 M240.300 216.291 L 242.800 216.437 242.800 229.585 C 242.800 238.165,242.658 242.804,242.390 242.937 C 242.165 243.049,242.210 243.094,242.490 243.037 C 242.891 242.955,243.000 240.079,243.000 229.567 L 243.000 216.200 240.400 216.173 L 237.800 216.145 240.300 216.291 M247.862 216.300 C 247.760 216.465,248.902 216.600,250.400 216.600 C 251.898 216.600,253.040 216.465,252.938 216.300 C 252.836 216.135,251.694 216.000,250.400 216.000 C 249.106 216.000,247.964 216.135,247.862 216.300 M207.000 216.873 C 207.440 217.120,208.295 217.667,208.900 218.088 C 209.505 218.510,210.000 218.759,210.000 218.642 C 210.000 218.321,207.074 216.398,206.607 216.412 C 206.383 216.419,206.560 216.626,207.000 216.873 M237.286 229.676 C 237.239 236.868,237.335 242.836,237.500 242.939 C 237.665 243.041,237.754 239.227,237.698 234.462 C 237.506 218.161,237.372 216.602,237.286 229.676 M192.560 218.341 C 191.702 218.969,190.640 219.912,190.200 220.436 C 189.760 220.960,190.122 220.761,191.004 219.994 C 191.886 219.227,193.056 218.294,193.604 217.921 C 194.152 217.548,194.492 217.233,194.360 217.221 C 194.228 217.209,193.418 217.714,192.560 218.341 M252.711 230.200 C 252.650 237.350,252.735 243.200,252.900 243.200 C 253.065 243.200,253.200 237.350,253.200 230.200 C 253.200 223.050,253.115 217.200,253.011 217.200 C 252.907 217.200,252.772 223.050,252.711 230.200 M211.200 220.200 C 211.717 220.750,212.206 221.200,212.288 221.200 C 212.621 221.200,210.972 219.224,210.630 219.213 C 210.427 219.206,210.683 219.650,211.200 220.200 M112.565 221.748 C 112.449 222.049,112.410 223.264,112.477 224.448 L 112.600 226.600 116.701 226.622 L 120.802 226.644 116.801 226.508 L 112.800 226.372 112.800 223.960 L 112.800 221.549 116.963 221.674 C 119.253 221.743,121.042 221.665,120.939 221.500 C 120.579 220.920,112.794 221.150,112.565 221.748 M128.509 223.200 C 128.509 224.190,128.587 224.595,128.682 224.100 C 128.778 223.605,128.778 222.795,128.682 222.300 C 128.587 221.805,128.509 222.210,128.509 223.200 M174.300 223.082 C 174.795 223.178,175.605 223.178,176.100 223.082 C 176.595 222.987,176.190 222.909,175.200 222.909 C 174.210 222.909,173.805 222.987,174.300 223.082 M206.580 223.666 C 207.353 224.900,208.254 225.360,208.649 224.721 C 208.810 224.460,208.742 224.388,208.486 224.547 C 208.245 224.696,207.568 224.318,206.980 223.709 L 205.912 222.600 206.580 223.666 M223.305 223.087 C 223.914 223.179,224.814 223.177,225.305 223.082 C 225.797 222.987,225.300 222.911,224.200 222.914 C 223.100 222.917,222.697 222.995,223.305 223.087 M265.705 223.087 C 266.314 223.179,267.214 223.177,267.705 223.082 C 268.197 222.987,267.700 222.911,266.600 222.914 C 265.500 222.917,265.097 222.995,265.705 223.087 M290.500 223.052 C 291.991 223.492,291.468 227.913,289.900 228.127 L 288.600 228.304 290.000 228.252 L 291.400 228.200 291.400 225.605 C 291.400 223.305,291.309 223.002,290.600 222.928 C 289.978 222.864,289.956 222.892,290.500 223.052 M143.067 223.467 C 142.702 223.831,142.739 238.885,143.106 239.463 C 143.268 239.718,143.345 236.262,143.277 231.782 L 143.155 223.638 145.877 223.497 L 148.600 223.357 145.967 223.278 C 144.518 223.235,143.213 223.320,143.067 223.467 M156.177 223.717 C 156.068 224.001,156.033 227.016,156.100 230.417 L 156.222 236.600 156.311 230.081 L 156.400 223.562 158.900 223.681 L 161.400 223.800 161.508 233.172 C 161.590 240.388,161.498 242.626,161.108 242.902 C 160.725 243.172,160.748 243.221,161.200 243.097 C 161.979 242.885,162.317 224.664,161.559 223.750 C 160.950 223.017,156.456 222.989,156.177 223.717 M228.400 223.838 C 229.170 224.171,230.318 224.929,230.950 225.522 C 231.893 226.406,232.005 226.444,231.573 225.730 C 231.004 224.793,228.437 223.190,227.546 223.216 C 227.245 223.224,227.630 223.504,228.400 223.838 M279.867 223.467 C 279.720 223.613,279.603 223.928,279.606 224.167 C 279.610 224.440,279.725 224.423,279.916 224.121 C 280.084 223.858,281.386 223.578,282.810 223.498 L 285.400 223.354 282.767 223.277 C 281.318 223.235,280.013 223.320,279.867 223.467 M121.916 225.113 L 121.232 226.600 122.016 225.656 C 122.447 225.136,122.800 224.461,122.800 224.156 C 122.800 223.333,122.670 223.473,121.916 225.113 M148.563 230.400 C 148.563 234.030,148.623 235.515,148.698 233.700 C 148.772 231.885,148.772 228.915,148.698 227.100 C 148.623 225.285,148.563 226.770,148.563 230.400 M272.236 224.870 C 272.909 225.348,273.852 226.291,274.330 226.964 C 274.809 227.638,275.200 227.988,275.200 227.743 C 275.200 227.126,272.115 224.000,271.506 224.000 C 271.234 224.000,271.562 224.391,272.236 224.870 M181.994 225.803 C 183.587 227.721,183.721 227.845,183.286 226.996 C 183.059 226.553,182.452 225.834,181.937 225.398 C 181.033 224.634,181.035 224.648,181.994 225.803 M187.293 227.200 C 187.293 227.970,187.375 228.285,187.476 227.900 C 187.576 227.515,187.576 226.885,187.476 226.500 C 187.375 226.115,187.293 226.430,187.293 227.200 M193.453 227.636 C 193.314 228.331,193.222 229.463,193.249 230.150 C 193.278 230.894,193.438 230.440,193.643 229.028 C 194.011 226.504,193.876 225.518,193.453 227.636 M174.500 227.476 C 174.885 227.576,175.515 227.576,175.900 227.476 C 176.285 227.375,175.970 227.293,175.200 227.293 C 174.430 227.293,174.115 227.375,174.500 227.476 M225.400 228.078 C 225.840 228.327,226.332 228.727,226.494 228.966 C 226.696 229.265,226.790 229.249,226.794 228.914 C 226.797 228.647,226.452 228.242,226.026 228.014 C 224.974 227.451,224.397 227.509,225.400 228.078 M178.399 229.100 C 178.922 229.815,179.413 230.400,179.489 230.400 C 179.793 230.400,178.801 228.900,178.145 228.367 C 177.713 228.016,177.810 228.296,178.399 229.100 M216.792 228.700 C 217.032 229.195,217.537 229.586,217.914 229.568 C 218.470 229.543,218.486 229.493,218.000 229.304 C 217.670 229.175,217.165 228.784,216.878 228.435 C 216.435 227.896,216.422 227.937,216.792 228.700 M232.889 235.867 C 232.824 240.917,232.668 242.787,232.300 242.935 C 231.908 243.093,231.911 243.144,232.313 243.168 C 233.150 243.220,233.226 242.481,233.100 235.585 L 232.979 229.000 232.889 235.867 M285.633 229.760 C 285.331 230.124,285.215 231.623,285.301 234.060 L 285.434 237.800 285.517 233.980 C 285.568 231.648,285.787 229.973,286.080 229.680 C 286.344 229.416,286.456 229.200,286.329 229.200 C 286.202 229.200,285.889 229.452,285.633 229.760 M127.029 230.838 C 127.673 231.629,128.281 232.208,128.379 232.125 C 128.478 232.042,127.951 231.395,127.209 230.687 L 125.858 229.400 127.029 230.838 M184.672 231.400 C 184.799 232.500,184.969 233.475,185.051 233.567 C 185.332 233.882,185.120 231.399,184.780 230.400 C 184.551 229.726,184.516 230.051,184.672 231.400 M165.049 230.615 C 164.912 230.973,164.818 231.656,164.841 232.133 C 164.867 232.681,165.003 232.486,165.210 231.603 C 165.560 230.116,165.465 229.533,165.049 230.615 M219.338 230.706 C 219.084 230.868,220.102 231.000,221.600 231.000 C 223.098 231.000,224.116 230.868,223.862 230.706 C 223.608 230.544,222.590 230.412,221.600 230.412 C 220.610 230.412,219.592 230.544,219.338 230.706 M276.200 232.998 C 276.200 234.165,276.335 235.038,276.500 234.937 C 276.885 234.701,276.880 231.945,276.494 231.338 C 276.332 231.084,276.200 231.831,276.200 232.998 M216.651 232.031 C 216.070 232.488,215.404 233.253,215.171 233.731 C 214.791 234.509,214.827 234.500,215.517 233.644 C 215.941 233.118,216.718 232.357,217.244 231.953 C 217.770 231.549,218.089 231.214,217.954 231.209 C 217.819 231.204,217.232 231.574,216.651 232.031 M279.753 235.800 C 279.753 238.440,279.818 239.468,279.897 238.084 C 279.975 236.701,279.974 234.541,279.895 233.284 C 279.816 232.028,279.752 233.160,279.753 235.800 M112.566 232.545 C 112.451 232.844,112.412 234.149,112.478 235.445 L 112.600 237.800 116.800 237.823 L 121.000 237.846 116.900 237.709 L 112.800 237.572 112.800 235.000 L 112.800 232.427 117.100 232.298 L 121.400 232.170 117.087 232.085 C 113.757 232.019,112.727 232.124,112.566 232.545 M121.868 232.800 C 122.102 233.130,122.498 233.940,122.749 234.600 L 123.205 235.800 122.976 234.600 C 122.850 233.940,122.454 233.130,122.096 232.800 C 121.516 232.267,121.491 232.267,121.868 232.800 M164.828 234.433 C 164.844 234.965,165.019 235.760,165.219 236.200 C 165.471 236.758,165.507 236.515,165.338 235.400 C 165.055 233.543,164.787 233.036,164.828 234.433 M206.115 236.010 C 205.189 236.885,204.567 237.600,204.734 237.600 C 204.901 237.600,205.741 236.880,206.600 236.000 C 208.610 233.941,208.300 233.948,206.115 236.010 M221.144 235.224 L 220.200 236.047 221.292 235.383 C 222.007 234.948,222.996 234.767,224.154 234.859 C 225.127 234.937,225.840 234.865,225.738 234.700 C 225.326 234.033,222.085 234.403,221.144 235.224 M188.011 235.200 C 188.015 235.530,188.389 236.250,188.844 236.800 C 189.298 237.350,189.553 237.574,189.410 237.299 C 188.219 234.994,188.006 234.674,188.011 235.200 M196.343 236.300 C 197.108 237.015,197.923 237.600,198.156 237.600 C 198.388 237.600,198.133 237.302,197.589 236.938 C 197.045 236.573,196.230 235.988,195.777 235.638 C 195.324 235.287,195.579 235.585,196.343 236.300 M210.203 235.605 C 210.337 235.822,210.696 236.000,211.001 236.000 C 211.305 236.000,211.835 236.400,212.177 236.889 C 212.520 237.378,212.800 237.586,212.800 237.351 C 212.800 237.116,212.485 236.653,212.100 236.323 C 211.228 235.574,209.865 235.058,210.203 235.605 M214.514 237.000 C 214.517 238.100,214.595 238.503,214.687 237.895 C 214.779 237.286,214.777 236.386,214.682 235.895 C 214.587 235.403,214.511 235.900,214.514 237.000 M262.446 235.830 C 262.421 236.287,262.895 237.097,263.500 237.630 L 264.600 238.600 263.740 237.600 C 263.267 237.050,262.793 236.240,262.686 235.800 C 262.499 235.025,262.491 235.026,262.446 235.830 M171.567 237.345 C 172.100 238.001,173.600 238.993,173.600 238.689 C 173.600 238.613,173.015 238.122,172.300 237.599 C 171.496 237.010,171.216 236.913,171.567 237.345 M149.595 238.009 C 150.679 238.961,153.598 238.967,154.535 238.020 C 154.891 237.660,154.737 237.649,153.874 237.975 C 152.280 238.577,150.738 238.502,149.589 237.768 L 148.600 237.136 149.595 238.009 M190.800 239.400 C 191.546 240.170,192.247 240.800,192.357 240.800 C 192.467 240.800,191.946 240.170,191.200 239.400 C 190.454 238.630,189.753 238.000,189.643 238.000 C 189.533 238.000,190.054 238.630,190.800 239.400 M200.705 238.283 C 201.202 238.379,201.922 238.375,202.305 238.275 C 202.687 238.175,202.280 238.096,201.400 238.101 C 200.520 238.105,200.207 238.187,200.705 238.283 M285.195 240.482 C 285.088 241.957,285.145 243.018,285.322 242.840 C 285.499 242.662,285.586 241.455,285.517 240.158 L 285.390 237.800 285.195 240.482 M257.613 238.656 C 257.631 239.144,258.757 240.576,258.961 240.371 C 259.055 240.277,258.787 239.775,258.366 239.256 C 257.945 238.736,257.606 238.466,257.613 238.656 M265.161 238.923 C 265.340 239.100,266.456 239.188,267.643 239.117 L 269.800 238.989 267.318 238.794 C 265.954 238.687,264.983 238.745,265.161 238.923 M175.107 239.090 C 175.826 239.179,176.906 239.177,177.507 239.086 C 178.108 238.995,177.520 238.922,176.200 238.924 C 174.880 238.926,174.388 239.001,175.107 239.090 M166.400 239.325 C 166.400 239.394,166.985 239.979,167.700 240.625 L 169.000 241.800 167.825 240.500 C 166.730 239.288,166.400 239.016,166.400 239.325 M215.114 240.204 C 215.341 240.647,215.948 241.366,216.463 241.802 C 217.367 242.566,217.365 242.552,216.406 241.397 C 214.813 239.479,214.679 239.355,215.114 240.204 M222.900 239.876 C 223.285 239.976,223.915 239.976,224.300 239.876 C 224.685 239.775,224.370 239.693,223.600 239.693 C 222.830 239.693,222.515 239.775,222.900 239.876 M143.600 240.656 C 143.600 241.221,145.579 243.200,146.144 243.200 C 146.382 243.200,146.184 242.924,145.702 242.587 C 145.221 242.249,144.551 241.579,144.213 241.098 C 143.876 240.616,143.600 240.418,143.600 240.656 M259.600 241.085 C 259.600 241.434,261.199 242.538,261.400 242.328 C 261.467 242.257,261.089 241.877,260.561 241.481 C 260.032 241.086,259.600 240.908,259.600 241.085 M132.800 242.200 C 132.800 242.750,132.955 243.200,133.145 243.200 C 133.334 243.200,133.403 242.750,133.298 242.200 C 133.193 241.650,133.038 241.200,132.953 241.200 C 132.869 241.200,132.800 241.650,132.800 242.200 M154.959 241.835 C 154.235 242.416,154.240 242.425,155.071 242.024 C 155.781 241.681,155.976 241.732,156.125 242.301 C 156.290 242.933,156.312 242.935,156.354 242.324 C 156.421 241.342,155.830 241.135,154.959 241.835 M123.400 242.800 C 122.629 243.131,122.631 243.145,123.476 243.172 C 123.958 243.187,124.464 243.020,124.600 242.800 C 124.892 242.327,124.501 242.327,123.400 242.800 M147.621 243.621 C 148.155 243.960,151.142 244.181,150.767 243.855 C 150.675 243.775,149.799 243.608,148.821 243.482 C 147.670 243.335,147.246 243.384,147.621 243.621 M199.000 243.610 C 199.770 243.931,203.507 244.151,203.167 243.855 C 203.075 243.776,201.920 243.613,200.600 243.493 C 199.151 243.362,198.517 243.408,199.000 243.610 M221.600 243.600 C 220.233 243.888,220.228 243.895,221.400 243.919 C 222.060 243.933,222.960 243.789,223.400 243.600 C 224.362 243.187,223.564 243.187,221.600 243.600 M264.600 243.604 C 265.367 243.930,268.711 244.153,268.367 243.856 C 268.275 243.777,267.210 243.611,266.000 243.488 C 264.631 243.349,264.102 243.392,264.600 243.604 M174.700 243.882 C 175.195 243.978,176.005 243.978,176.500 243.882 C 176.995 243.787,176.590 243.709,175.600 243.709 C 174.610 243.709,174.205 243.787,174.700 243.882 " stroke="none" fill="#b6acd9" fill-rule="evenodd"></path><path id="path3" d="M200.300 216.289 C 201.015 216.378,202.185 216.378,202.900 216.289 C 203.615 216.201,203.030 216.128,201.600 216.128 C 200.170 216.128,199.585 216.201,200.300 216.289 M106.982 216.903 C 106.875 217.180,106.839 223.165,106.900 230.203 L 107.012 243.000 107.106 229.908 L 107.200 216.817 115.300 216.700 L 123.400 216.582 115.287 216.491 C 109.068 216.421,107.130 216.518,106.982 216.903 M133.389 216.883 C 133.279 217.171,133.239 223.165,133.300 230.203 L 133.412 243.000 133.506 229.900 L 133.600 216.800 135.771 216.800 C 137.151 216.800,138.002 216.982,138.109 217.300 C 138.206 217.589,138.259 217.546,138.235 217.200 C 138.177 216.391,133.691 216.098,133.389 216.883 M204.433 216.544 C 204.525 216.623,205.140 216.808,205.800 216.956 C 206.676 217.152,206.838 217.115,206.400 216.818 C 205.860 216.453,204.032 216.198,204.433 216.544 M237.789 216.883 C 237.679 217.171,237.639 223.165,237.700 230.203 L 237.812 243.000 237.906 229.900 L 238.000 216.800 240.216 216.800 L 242.431 216.800 242.316 229.800 C 242.252 236.950,242.337 242.800,242.505 242.800 C 242.673 242.800,242.763 236.905,242.705 229.700 L 242.600 216.600 240.295 216.480 C 238.675 216.395,237.931 216.515,237.789 216.883 M250.193 216.687 L 252.389 216.840 252.503 229.920 L 252.617 243.000 252.608 229.800 L 252.600 216.600 250.298 216.567 L 247.996 216.534 250.193 216.687 M124.433 217.330 C 124.525 217.401,125.230 217.866,126.000 218.363 L 127.400 219.266 126.200 218.235 C 125.540 217.668,124.835 217.203,124.633 217.202 C 124.432 217.201,124.342 217.258,124.433 217.330 M208.200 217.852 C 208.420 218.045,209.320 218.832,210.199 219.601 L 211.798 221.000 210.599 219.666 C 209.940 218.932,209.040 218.145,208.600 217.917 C 208.160 217.689,207.980 217.660,208.200 217.852 M114.515 221.096 C 115.788 221.176,117.768 221.175,118.915 221.094 C 120.062 221.014,119.020 220.949,116.600 220.950 C 114.180 220.951,113.242 221.016,114.515 221.096 M197.400 221.548 C 196.740 221.958,195.752 222.813,195.204 223.447 C 194.361 224.422,194.430 224.395,195.654 223.270 C 196.449 222.539,197.797 221.692,198.650 221.388 C 199.549 221.067,199.864 220.828,199.400 220.819 C 198.960 220.810,198.060 221.138,197.400 221.548 M203.471 221.078 C 203.950 221.172,205.165 221.972,206.170 222.858 C 207.176 223.743,208.224 224.376,208.499 224.265 C 208.876 224.113,208.866 224.055,208.461 224.032 C 208.165 224.014,207.105 223.280,206.105 222.400 C 205.089 221.505,203.915 220.824,203.444 220.854 C 202.616 220.908,202.616 220.912,203.471 221.078 M128.109 223.200 C 128.109 224.190,128.187 224.595,128.282 224.100 C 128.378 223.605,128.378 222.795,128.282 222.300 C 128.187 221.805,128.109 222.210,128.109 223.200 M174.305 223.483 C 174.802 223.579,175.522 223.575,175.905 223.475 C 176.287 223.375,175.880 223.296,175.000 223.301 C 174.120 223.305,173.807 223.387,174.305 223.483 M223.505 223.483 C 224.002 223.579,224.722 223.575,225.105 223.475 C 225.487 223.375,225.080 223.296,224.200 223.301 C 223.320 223.305,223.007 223.387,223.505 223.483 M265.905 223.483 C 266.402 223.579,267.122 223.575,267.505 223.475 C 267.887 223.375,267.480 223.296,266.600 223.301 C 265.720 223.305,265.407 223.387,265.905 223.483 M143.450 224.214 C 143.124 225.064,143.202 237.921,143.540 239.129 C 143.683 239.640,143.800 236.490,143.800 232.129 L 143.800 224.200 145.800 224.200 L 147.800 224.200 148.021 230.600 L 148.241 237.000 148.221 230.400 L 148.200 223.800 145.950 223.682 C 144.167 223.588,143.648 223.698,143.450 224.214 M156.399 223.880 C 156.399 224.056,157.386 224.139,158.592 224.063 L 160.785 223.927 160.904 233.263 L 161.022 242.600 161.011 233.200 L 161.000 223.800 158.700 223.680 C 157.435 223.614,156.400 223.704,156.399 223.880 M280.267 223.867 C 280.120 224.013,280.040 228.378,280.089 233.567 L 280.178 243.000 280.389 233.600 L 280.600 224.200 282.502 224.078 C 284.224 223.968,284.440 224.052,284.792 224.978 C 285.260 226.209,285.389 226.224,286.691 225.200 C 287.250 224.760,287.526 224.400,287.303 224.400 C 287.080 224.400,286.674 224.670,286.400 225.000 C 285.691 225.854,285.323 225.746,285.036 224.600 C 284.787 223.610,281.092 223.042,280.267 223.867 M290.800 225.380 C 290.800 226.653,290.601 227.276,290.100 227.568 C 289.475 227.932,289.496 227.977,290.300 227.988 C 291.126 227.999,291.200 227.818,291.200 225.800 C 291.200 224.590,291.110 223.600,291.000 223.600 C 290.890 223.600,290.800 224.401,290.800 225.380 M272.124 225.266 C 272.742 225.781,273.613 226.652,274.059 227.201 C 274.505 227.751,274.737 227.930,274.575 227.600 C 274.109 226.649,272.673 225.163,271.800 224.728 C 271.344 224.500,271.483 224.731,272.124 225.266 M216.424 225.771 C 215.337 227.081,217.507 229.591,218.888 228.623 C 219.378 228.280,219.569 228.000,219.313 228.000 C 219.057 228.000,218.736 228.180,218.600 228.400 C 218.165 229.104,217.638 228.833,216.985 227.571 C 216.489 226.613,216.454 226.217,216.824 225.771 C 217.085 225.457,217.208 225.200,217.098 225.200 C 216.988 225.200,216.685 225.457,216.424 225.771 M182.655 227.400 C 183.580 228.979,183.600 229.003,183.600 228.511 C 183.600 228.279,183.229 227.664,182.776 227.144 L 181.953 226.200 182.655 227.400 M112.663 227.300 C 112.901 227.687,119.653 227.681,120.263 227.294 C 120.518 227.132,118.870 227.000,116.602 227.000 C 114.334 227.000,112.561 227.135,112.663 227.300 M193.067 227.067 C 192.699 227.434,192.729 231.909,193.100 232.138 C 193.265 232.240,193.400 231.081,193.400 229.562 C 193.400 228.043,193.385 226.800,193.367 226.800 C 193.348 226.800,193.213 226.920,193.067 227.067 M166.210 228.780 C 165.875 229.429,165.615 230.284,165.634 230.680 C 165.657 231.159,165.773 231.057,165.979 230.377 C 166.150 229.814,166.501 228.959,166.759 228.477 C 167.017 227.994,167.136 227.600,167.024 227.600 C 166.912 227.600,166.546 228.131,166.210 228.780 M124.976 228.600 C 124.127 229.257,124.551 229.845,126.600 230.851 L 127.400 231.244 126.600 230.595 C 126.160 230.237,125.530 229.788,125.200 229.596 C 124.687 229.297,124.716 229.157,125.400 228.636 C 125.840 228.300,126.099 228.020,125.976 228.013 C 125.854 228.006,125.404 228.270,124.976 228.600 M232.200 235.275 C 232.200 239.369,232.332 242.511,232.494 242.259 C 232.846 241.708,232.812 230.700,232.453 229.016 C 232.314 228.365,232.200 231.182,232.200 235.275 M261.745 230.200 C 261.153 231.741,261.809 232.000,266.307 232.000 C 270.489 232.000,271.600 231.715,271.600 230.644 C 271.600 230.425,271.372 230.558,271.094 230.939 C 270.216 232.140,262.164 231.739,262.295 230.500 C 262.404 229.476,262.088 229.304,261.745 230.200 M284.963 236.400 C 284.963 240.030,285.023 241.515,285.098 239.700 C 285.172 237.885,285.172 234.915,285.098 233.100 C 285.023 231.285,284.963 232.770,284.963 236.400 M275.722 232.200 L 275.800 234.200 269.141 234.309 C 262.203 234.424,260.604 234.828,261.996 236.117 C 262.408 236.499,262.453 236.486,262.207 236.055 C 261.630 235.040,262.963 234.812,269.513 234.806 C 276.781 234.799,276.624 234.867,276.022 232.000 L 275.645 230.200 275.722 232.200 M170.349 231.300 C 170.924 232.034,179.310 232.391,179.739 231.700 C 179.842 231.535,177.950 231.456,175.535 231.525 C 172.354 231.616,170.958 231.506,170.472 231.125 C 169.869 230.654,169.856 230.672,170.349 231.300 M220.900 231.076 C 221.285 231.176,221.915 231.176,222.300 231.076 C 222.685 230.975,222.370 230.893,221.600 230.893 C 220.830 230.893,220.515 230.975,220.900 231.076 M256.928 233.200 C 256.928 234.630,257.001 235.215,257.089 234.500 C 257.178 233.785,257.178 232.615,257.089 231.900 C 257.001 231.185,256.928 231.770,256.928 233.200 M224.504 231.772 C 225.331 232.067,226.260 232.518,226.568 232.774 C 226.962 233.100,227.208 233.111,227.394 232.810 C 227.540 232.573,227.511 232.422,227.330 232.472 C 227.148 232.523,226.424 232.257,225.720 231.882 C 225.016 231.507,224.116 231.208,223.720 231.218 C 223.324 231.227,223.677 231.477,224.504 231.772 M114.500 231.896 C 115.765 231.975,117.835 231.975,119.100 231.896 C 120.365 231.816,119.330 231.751,116.800 231.751 C 114.270 231.751,113.235 231.816,114.500 231.896 M165.309 233.200 C 165.309 234.190,165.387 234.595,165.482 234.100 C 165.578 233.605,165.578 232.795,165.482 232.300 C 165.387 231.805,165.309 232.210,165.309 233.200 M184.460 233.100 L 184.400 234.400 177.900 234.406 C 174.325 234.409,171.191 234.544,170.936 234.706 C 170.681 234.868,173.561 234.944,177.336 234.875 C 184.725 234.740,184.950 234.682,184.691 232.949 C 184.523 231.819,184.519 231.821,184.460 233.100 M123.000 235.000 C 123.000 235.948,123.132 236.516,123.294 236.262 C 123.679 235.656,123.684 233.699,123.300 233.462 C 123.135 233.360,123.000 234.052,123.000 235.000 M222.905 234.287 C 223.514 234.379,224.414 234.377,224.905 234.282 C 225.397 234.187,224.900 234.111,223.800 234.114 C 222.700 234.117,222.297 234.195,222.905 234.287 M220.155 235.412 C 219.790 235.969,219.606 236.539,219.746 236.679 C 219.886 236.819,220.000 236.723,220.000 236.467 C 220.000 236.210,220.360 235.640,220.800 235.200 C 221.240 234.760,221.424 234.400,221.209 234.400 C 220.994 234.400,220.520 234.856,220.155 235.412 M214.914 237.000 C 214.917 238.100,214.995 238.503,215.087 237.895 C 215.179 237.286,215.177 236.386,215.082 235.895 C 214.987 235.403,214.911 235.900,214.914 237.000 M209.978 239.900 L 208.600 241.400 210.100 240.022 C 211.496 238.738,211.784 238.400,211.478 238.400 C 211.412 238.400,210.737 239.075,209.978 239.900 M258.328 239.000 C 258.763 239.873,260.249 241.309,261.200 241.775 C 261.530 241.937,261.351 241.705,260.801 241.259 C 260.252 240.813,259.381 239.942,258.866 239.324 C 258.331 238.683,258.100 238.544,258.328 239.000 M266.200 239.600 C 266.640 239.789,267.270 239.944,267.600 239.944 C 267.978 239.944,267.904 239.817,267.400 239.600 C 266.960 239.411,266.330 239.256,266.000 239.256 C 265.622 239.256,265.696 239.383,266.200 239.600 M126.200 240.910 C 125.412 241.702,125.276 241.972,125.804 241.696 C 126.736 241.208,128.299 239.575,127.762 239.651 C 127.563 239.680,126.860 240.246,126.200 240.910 M148.300 243.268 C 149.056 243.474,150.144 243.474,150.900 243.268 C 152.011 242.965,151.823 242.913,149.600 242.913 C 147.377 242.913,147.189 242.965,148.300 243.268 M174.061 243.246 C 174.865 243.425,176.305 243.424,177.261 243.243 C 178.787 242.955,178.608 242.915,175.800 242.918 C 173.221 242.920,172.883 242.984,174.061 243.246 M199.739 243.240 C 200.806 243.408,202.426 243.406,203.339 243.237 C 204.654 242.992,204.250 242.929,201.400 242.931 C 198.311 242.934,198.075 242.978,199.739 243.240 M220.300 243.211 C 221.015 243.369,222.185 243.369,222.900 243.211 C 223.898 242.990,223.597 242.923,221.600 242.923 C 219.603 242.923,219.302 242.990,220.300 243.211 M265.400 243.217 C 266.280 243.381,267.720 243.383,268.600 243.222 C 269.878 242.987,269.556 242.927,267.000 242.924 C 264.440 242.920,264.120 242.979,265.400 243.217 " stroke="none" fill="#909597" fill-rule="evenodd"></path><path id="path4" d="M200.505 215.887 C 201.114 215.979,202.014 215.977,202.505 215.882 C 202.997 215.787,202.500 215.711,201.400 215.714 C 200.300 215.717,199.897 215.795,200.505 215.887 M138.177 229.800 C 138.177 236.400,138.232 239.156,138.299 235.925 C 138.366 232.693,138.366 227.293,138.299 223.925 C 138.232 220.556,138.177 223.200,138.177 229.800 M247.777 229.800 C 247.777 236.400,247.832 239.156,247.899 235.925 C 247.966 232.693,247.966 227.293,247.899 223.925 C 247.832 220.556,247.777 223.200,247.777 229.800 M190.778 220.300 L 189.400 221.800 190.900 220.422 C 192.296 219.138,192.584 218.800,192.278 218.800 C 192.212 218.800,191.537 219.475,190.778 220.300 M132.973 229.000 C 132.973 234.500,133.030 236.805,133.099 234.123 C 133.168 231.441,133.168 226.941,133.099 224.123 C 133.030 221.305,132.974 223.500,132.973 229.000 M200.705 221.083 C 201.202 221.179,201.922 221.175,202.305 221.075 C 202.687 220.975,202.280 220.896,201.400 220.901 C 200.520 220.905,200.207 220.987,200.705 221.083 M161.199 233.319 L 161.399 243.000 161.507 233.628 C 161.566 228.473,161.477 224.116,161.308 223.947 C 161.138 223.777,161.090 227.995,161.199 233.319 M279.742 227.800 C 279.741 229.780,279.808 230.640,279.892 229.712 C 279.976 228.784,279.977 227.164,279.895 226.112 C 279.812 225.060,279.743 225.820,279.742 227.800 M259.375 226.100 L 258.200 227.400 259.500 226.225 C 260.215 225.579,260.800 224.994,260.800 224.925 C 260.800 224.616,260.470 224.888,259.375 226.100 M112.755 226.916 C 112.930 227.091,114.677 227.179,116.636 227.114 L 120.200 226.994 116.318 226.797 C 114.183 226.689,112.580 226.742,112.755 226.916 M222.300 227.482 C 222.795 227.578,223.605 227.578,224.100 227.482 C 224.595 227.387,224.190 227.309,223.200 227.309 C 222.210 227.309,221.805 227.387,222.300 227.482 M187.301 229.800 C 187.305 230.680,187.387 230.993,187.483 230.495 C 187.579 229.998,187.575 229.278,187.475 228.895 C 187.375 228.513,187.296 228.920,187.301 229.800 M227.264 230.924 C 227.220 231.962,227.053 232.356,226.738 232.162 C 226.441 231.978,226.385 232.053,226.583 232.373 C 227.105 233.217,227.671 232.207,227.493 230.751 L 227.328 229.400 227.264 230.924 M170.502 230.800 C 170.682 231.461,179.028 231.930,179.647 231.314 C 179.821 231.141,177.964 231.057,175.521 231.126 C 172.189 231.221,170.987 231.121,170.709 230.726 C 170.419 230.314,170.374 230.330,170.502 230.800 M264.515 231.496 C 265.788 231.576,267.768 231.575,268.915 231.494 C 270.062 231.414,269.020 231.349,266.600 231.350 C 264.180 231.351,263.242 231.416,264.515 231.496 M256.493 233.200 C 256.493 233.970,256.575 234.285,256.676 233.900 C 256.776 233.515,256.776 232.885,256.676 232.500 C 256.575 232.115,256.493 232.430,256.493 233.200 M128.901 235.800 C 128.905 236.680,128.987 236.993,129.083 236.495 C 129.179 235.998,129.175 235.278,129.075 234.895 C 128.975 234.513,128.896 234.920,128.901 235.800 M177.800 234.800 L 171.000 235.029 177.676 235.115 C 181.791 235.167,184.448 235.046,184.600 234.800 C 184.736 234.580,184.792 234.438,184.724 234.485 C 184.656 234.532,181.540 234.674,177.800 234.800 M269.400 234.800 L 262.600 235.029 269.276 235.115 C 273.391 235.167,276.048 235.046,276.200 234.800 C 276.336 234.580,276.392 234.438,276.324 234.485 C 276.256 234.532,273.140 234.674,269.400 234.800 M227.293 237.200 C 227.293 237.970,227.375 238.285,227.476 237.900 C 227.576 237.515,227.576 236.885,227.476 236.500 C 227.375 236.115,227.293 236.430,227.293 237.200 M112.755 238.116 C 112.930 238.291,114.677 238.379,116.636 238.314 L 120.200 238.194 116.318 237.997 C 114.183 237.889,112.580 237.942,112.755 238.116 M138.000 242.333 C 138.000 242.626,137.143 242.828,135.700 242.874 L 133.400 242.948 135.557 243.097 C 137.571 243.236,138.901 242.767,138.273 242.140 C 138.123 241.990,138.000 242.077,138.000 242.333 M247.701 242.400 C 247.820 242.842,248.488 243.010,250.232 243.037 L 252.600 243.075 250.409 242.913 C 249.204 242.825,248.065 242.538,247.878 242.276 C 247.642 241.944,247.588 241.981,247.701 242.400 M111.121 243.099 C 113.388 243.170,116.988 243.170,119.121 243.098 C 121.255 243.026,119.400 242.968,115.000 242.968 C 110.600 242.968,108.855 243.027,111.121 243.099 M157.507 243.090 C 158.226 243.179,159.306 243.177,159.907 243.086 C 160.508 242.995,159.920 242.922,158.600 242.924 C 157.280 242.926,156.788 243.001,157.507 243.090 M228.900 243.087 C 229.505 243.178,230.495 243.178,231.100 243.087 C 231.705 242.995,231.210 242.920,230.000 242.920 C 228.790 242.920,228.295 242.995,228.900 243.087 M238.900 243.087 C 239.505 243.178,240.495 243.178,241.100 243.087 C 241.705 242.995,241.210 242.920,240.000 242.920 C 238.790 242.920,238.295 242.995,238.900 243.087 M281.507 243.090 C 282.226 243.179,283.306 243.177,283.907 243.086 C 284.508 242.995,283.920 242.922,282.600 242.924 C 281.280 242.926,280.788 243.001,281.507 243.090 " stroke="none" fill="#9d9da4" fill-rule="evenodd"></path></g></svg>